<svg width="45" height="35" viewBox="0 0 45 35" fill="none" xmlns="http://www.w3.org/2000/svg">
<path d="M0.703125 34.375H44.2969C44.6857 34.375 45 34.0607 45 33.6719V24.5298V19.6115C45 18.0597 43.7372 16.7969 42.1854 16.7969H34.3216C34.0291 15.9827 33.2578 15.3955 32.3438 15.3955H29.5453C29.5404 15.3955 29.5362 15.3927 29.5312 15.3927C28.3683 15.3927 27.4219 14.4463 27.4219 13.2834V5.54688C27.4219 2.83352 25.2134 0.625 22.5 0.625C19.7866 0.625 17.5781 2.83352 17.5781 5.54688V13.2834C17.5781 14.4463 16.6317 15.3927 15.4688 15.3927C15.4638 15.3927 15.4596 15.3955 15.4547 15.3955H12.6562C11.7422 15.3955 10.9709 15.9827 10.6784 16.7969H2.81461C2.80828 16.7969 2.80266 16.8004 2.79633 16.8004C1.25227 16.8102 0 18.066 0 19.6115V24.5298V33.6719C0 34.0607 0.314297 34.375 0.703125 34.375ZM43.5938 30.8594H1.40625V25.233H43.5938V30.8594ZM1.40625 32.9688V32.2656H43.5938V32.9688H1.40625ZM18.9844 13.2834V5.54688C18.9844 3.60836 20.5615 2.03125 22.5 2.03125C24.4385 2.03125 26.0156 3.60836 26.0156 5.54688V13.2834C26.0156 15.212 27.5787 16.7814 29.5038 16.7962C29.5137 16.7969 29.5214 16.8018 29.5312 16.8018H32.3438C32.7319 16.8018 33.0469 17.1168 33.0469 17.5049V21.0177H11.9531V17.5049C11.9531 17.1168 12.2681 16.8018 12.6562 16.8018H15.4688C15.4786 16.8018 15.4863 16.7969 15.4962 16.7962C17.4213 16.7814 18.9844 15.212 18.9844 13.2834ZM2.8125 18.2052C2.81602 18.2052 2.81953 18.2031 2.82305 18.2031H10.5469V21.7209C10.5469 22.1097 10.8612 22.424 11.25 22.424H33.75C34.1388 22.424 34.4531 22.1097 34.4531 21.7209V18.2031H42.1854C42.9623 18.2031 43.5938 18.8345 43.5938 19.6115V23.8267H1.40625V19.6115C1.40625 18.8359 2.03695 18.2052 2.8125 18.2052Z" fill="#212D55"/>
</svg>
